<svg xmlns="http://www.w3.org/2000/svg" width="139.594" height="726.25" viewBox="0 0 139.594 726.25">
  <defs>
    <style>
      .cls-1 {
        fill: #bcbcbc;
        fill-rule: evenodd;
        opacity: 0.1;
      }
    </style>
  </defs>
  <path id="agency.svg" class="cls-1" d="M30.866,691.392v34.856h72.4v-24.41H85.476V691.392a42.719,42.719,0,0,0-3.31-17.479,25.046,25.046,0,0,0-24-15.515,25.046,25.046,0,0,0-24,15.515,42.747,42.747,0,0,0-3.31,17.479h0Zm35.786,1.552v8.894H49.69v-8.894q0-4.965,2.224-7.447a7.967,7.967,0,0,1,6.257-2.482,7.965,7.965,0,0,1,6.257,2.482q2.225,2.483,2.224,7.447h0Zm18.2-65.885H75.34V596.444H57.757v30.615H49.276V592.2H30.866v58.851h72.4V590.859H84.855v36.2ZM30.866,508.84v25.444L57.86,549.7v7.447H30.866v24.409h72.4V557.142H77.1v-6.827l26.168-13.859V508.944l-37.235,21.41Zm0-16.548L59.1,493.223q8.378,0.31,13.549,1.034A20.3,20.3,0,0,1,80.925,497a6.548,6.548,0,0,1,3.1,5.844,11.914,11.914,0,0,1-.31,2.689l19.549,1.241a43.551,43.551,0,0,0,1.344-10.343q0-9.618-5.533-14.79T83.614,474.4a147.984,147.984,0,0,0-25.443-2.483l-8.378-.206V455.161h53.473v-24h-72.4v61.127Zm72.4-129.906V337.15L30.866,368.8v24l72.4,31.649V399.621l-12.619-4.862V367.247Zm-30.2,25.651L54.861,381l18.2-7.033v14.067Zm30.2-144.49-72.4.207v20.065l38.579,22.962L30.866,310.362v20.066h72.4V308.19H71.41l25.34-15.721V281.713L70.272,265.991l32.994-.206V243.547Zm-72.4-59.678h25.65v22.548H30.866v24.409h72.4V206.417H76.581V183.869h26.685V159.46h-72.4v24.409Zm74.055-74.054a44.671,44.671,0,0,0-4.861-21A36.257,36.257,0,0,0,67.066,68.96,36.258,36.258,0,0,0,34.072,88.819a44.68,44.68,0,0,0-4.861,21,44.676,44.676,0,0,0,4.861,21,36.259,36.259,0,0,0,32.994,19.858,36.258,36.258,0,0,0,32.993-19.858,44.668,44.668,0,0,0,4.861-21h0Zm-19.754,0a15.542,15.542,0,0,1-2.224,8.222,15.9,15.9,0,0,1-6.309,5.844,20.087,20.087,0,0,1-9.567,2.172,20.1,20.1,0,0,1-9.567-2.172,15.926,15.926,0,0,1-6.309-5.844,16.314,16.314,0,0,1,0-16.445A15.943,15.943,0,0,1,57.5,95.748a20.1,20.1,0,0,1,9.567-2.172,20.087,20.087,0,0,1,9.567,2.172,15.92,15.92,0,0,1,6.309,5.844,15.553,15.553,0,0,1,2.224,8.223h0Zm-0.31-73.642H75.34V5.559H57.757V36.174H49.276V1.318H30.866V60.169h72.4v-60.2H84.855v36.2Zm83.018,320.615V342.269L126.22,360.477v13.805l41.653,18.209V378.21l-7.26-2.8V359.585ZM150.5,371.545L140.025,367.5l10.473-4.046v8.092ZM126.22,306.686V338.4h41.653V324.6H137.109V306.686H126.22Zm31.061-18.445h-5.474V270.628H141.691v17.613h-4.879V268.188H126.22v33.858h41.653V267.414H157.281v20.827ZM126.22,234.688h14.757v12.971H126.22V261.7h41.653V247.659H152.521V234.688h15.352V220.645H126.22v14.043Zm0-56.886V216h10.889v-12.2h30.764V190H137.109V177.8H126.22Zm42.6-24.992a26.126,26.126,0,0,0-2.142-10.829,20.1,20.1,0,0,0-6.189-7.855l-7.913,8.866q4.88,3.869,4.879,9.1a9.3,9.3,0,0,1-2.827,7.081,12.085,12.085,0,0,1-15.173,0,9.3,9.3,0,0,1-2.827-7.081q0-5.235,4.88-9.1l-7.914-8.866a20.113,20.113,0,0,0-6.189,7.855,26.126,26.126,0,0,0-2.142,10.829,25.313,25.313,0,0,0,2.767,11.9,20.688,20.688,0,0,0,7.736,8.3,22.659,22.659,0,0,0,22.552,0,20.685,20.685,0,0,0,7.735-8.3,25.3,25.3,0,0,0,2.767-11.9h0Zm-42.6-58.076v38.2h10.889v-12.2h30.764v-13.8H137.109v-12.2H126.22ZM146.035,58.08a10.618,10.618,0,0,0-3.689-3.957,9.753,9.753,0,0,0-5.237-1.4,9.134,9.134,0,0,0-8.033,4.255q-2.856,4.255-2.856,11.99V90.093h41.653V67.839q0-8.092-3.243-12.526a10.369,10.369,0,0,0-8.836-4.433,9.813,9.813,0,0,0-6.04,1.845,11.109,11.109,0,0,0-3.719,5.355h0Zm-10,18.208v-5.95q0-3.45,3.154-3.451,3.034,0,3.035,3.451v5.95h-6.189Zm22.017-7.8v7.8h-6.546v-7.8q0-3.45,3.214-3.451,3.333,0,3.332,3.451h0ZM168.825,24.7a25.707,25.707,0,0,0-2.8-12.079,21.353,21.353,0,0,0-37.963,0,25.707,25.707,0,0,0-2.8,12.079,25.7,25.7,0,0,0,2.8,12.079,21.353,21.353,0,0,0,37.963,0,25.7,25.7,0,0,0,2.8-12.079h0Zm-11.365,0a8.94,8.94,0,0,1-1.28,4.73,9.149,9.149,0,0,1-3.629,3.362,12.748,12.748,0,0,1-11.009,0,9.162,9.162,0,0,1-3.629-3.362,9.382,9.382,0,0,1,0-9.461,9.17,9.17,0,0,1,3.629-3.362,12.749,12.749,0,0,1,11.009,0,9.157,9.157,0,0,1,3.629,3.362,8.945,8.945,0,0,1,1.28,4.731h0Z" transform="translate(-29.219)"/>
</svg>
